<?xml version="1.0" encoding="UTF-8"?>
<svg width="63px" height="64px" viewBox="0 0 63 64" version="1.1" xmlns="http://www.w3.org/2000/svg" xmlns:xlink="http://www.w3.org/1999/xlink">
    <!-- Generator: Sketch 62 (91390) - https://sketch.com -->
    <title>DIG-light</title>
    <desc>Created with Sketch.</desc>
    <g id="DIG-light" stroke="none" stroke-width="1" fill="none" fill-rule="evenodd">
        <g id="Dog" fill="#000000">
            <path d="M17.8733998,0.0287926636 C18.0622924,0.131061392 18.0461165,0.384718515 17.8248723,0.789764032 C17.4998516,1.39771424 16.4089591,5.24479533 15.9611457,7.51424404 C15.6676635,9.00156635 15.6716315,10.483638 16.0836219,13.3086014 C18.7274504,13.393836 22.1776509,14.4582287 25.9309641,16.3888257 C29.6842772,18.3194226 32.4655071,19.8821461 35.4677854,22.8366434 C38.4700637,25.7911406 39.9259648,27.2613616 41.2739397,28.3187517 C43.1724958,29.8080335 44.5656105,30.3257531 45.8371199,30.668917 C47.1086292,31.0120809 49.3968947,30.9253459 51.1535796,29.3859596 C51.0494252,30.2136997 50.6203266,30.7700645 50.23191,30.9517669 C51.9318295,30.3936285 52.544029,29.6229315 53.3006945,28.9766342 C52.9729577,29.6513115 52.6636227,30.1411993 52.572469,30.3750359 C54.5719002,29.360113 57.0846543,29.6387959 57.9974145,29.6084209 C58.6059214,29.588171 59.7226565,29.3722685 61.3476199,28.9607136 C61.089654,31.0774869 59.8255938,32.4361671 58.007412,33.3668458 C59.4104098,34.096938 60.628685,34.3031263 62.5449458,34.5227115 C61.7666546,36.7418604 58.638096,37.635967 56.3355053,38.0768617 C57.2620647,38.8138655 57.5067609,39.0351361 58.3919204,40.7293462 C57.6518996,40.1907751 56.9132747,39.8854958 56.296851,40.0449212 C57.078669,40.6201348 58.1162784,42.6427432 58.4363896,43.3827887 C57.9241139,42.9924269 57.7703652,42.8707727 57.3647814,42.9110136 C57.7354632,43.5836804 58.0939446,44.8612231 57.8375596,47.6180654 C56.7215047,44.6588126 56.5704594,44.5392033 55.5244906,44.408256 C56.151514,48.4230333 57.050595,51.1054532 58.2217336,52.4555158 C57.7935523,52.3570015 57.4511726,52.3001611 57.1945946,52.2849946 C57.1700657,54.0192564 57.273441,55.6472002 57.2795208,55.9639044 C56.7752613,56.3443772 56.1087625,56.5110886 55.4619662,56.4781426 C55.2905074,57.0826374 54.6547958,57.5902926 53.5548314,58.0011082 C52.6106315,58.4417516 52.3669418,58.4408851 50.3923423,58.4464914 C48.6977751,58.4513026 46.6909229,58.2915381 45.2975696,57.9325875 C46.389463,57.6845778 47.3667681,57.3552742 48.2294849,56.9446767 C47.7700178,56.9327308 47.2914591,56.9485207 46.7938089,56.9920465 C44.6957529,57.1247319 45.1192422,57.7494382 42.6003266,57.3357636 C40.9210495,57.0599805 39.3803409,56.4890133 37.9782009,55.6228621 C39.1203559,55.1157388 40.7015143,54.3523325 42.086757,52.8420303 C41.6959768,52.7323433 40.8486431,52.6065077 39.8626266,53.4839922 C40.244843,51.6459245 40.8580705,49.2857285 42.8146482,47.3198206 C41.5829979,46.0238823 35.0211976,45.3049664 32.886975,45.3511375 C33.76348,47.8346119 34.3312344,49.9525739 34.8045075,52.3055261 C34.8740289,52.6511629 34.7233939,53.3857504 34.3526024,54.5092886 C33.6858555,56.5514655 33.2371009,57.3777381 31.9892314,58.2331728 C30.698821,59.1177701 28.3902326,58.4060344 27.7917368,58.1479122 C27.2335892,57.9071916 27.2603547,57.8114811 27.4477192,56.2703102 C27.6350838,54.7291394 28.1577911,53.2299285 28.0505277,52.5407763 C27.9432643,51.8516241 23.7990632,47.1444485 23.2140805,45.0502179 C23.0730836,44.545451 23.2051363,43.9722948 23.72765,43.2975281 C22.3608115,42.7100327 21.4176404,42.1236886 20.8981368,41.5384959 C21.4065344,41.6378546 21.6858016,41.6606756 22.0446821,41.6658503 C21.0960861,41.1300428 19.8859904,40.4306523 19.1248399,39.701735 C19.4749474,39.7096931 19.8346666,39.733949 20.0161788,39.6377024 C17.6636345,37.3817755 16.0980728,35.9999082 12.6666968,35.7280213 C12.2972508,36.7303586 12.0850847,37.7232656 12.0301985,38.7067421 C11.6424288,38.428159 11.4837745,38.2388762 11.222552,37.9778981 C10.8602517,38.5401248 11.0128836,39.7613744 11.0828186,40.2930066 C10.8174539,40.2282258 10.5663876,39.978277 10.3296198,39.5431602 L10.2082468,41.2983632 C10.7211487,41.4059651 11.2072557,41.6354101 11.6665677,41.9866983 C12.3555358,42.5136307 12.8027162,43.4070422 11.9915885,44.1352532 C11.201529,44.8445497 9.02677181,44.9465461 7.45997843,44.9008218 C5.89318504,44.8550975 3.86247783,44.6737542 2.79416575,43.527303 C1.6994756,42.3525445 0.566175392,39.233358 0.325020753,35.8296596 C0.167071516,33.6003367 0.273182034,32.1313803 0.727578103,30.2799382 C0.592587326,30.3921028 0.350061292,30.6349454 0,31.0084657 C0.0429849298,30.450337 0.348403202,28.4064281 1.01430527,27.4031722 C0.783983244,27.511037 0.499471407,27.7270846 0.160769759,28.0513149 C1.31917628,23.6405637 4.84350437,17.1475117 11.6665677,14.0776378 C11.7231284,13.1253379 11.783502,11.4704632 10.9937906,9.95488807 C11.4918737,10.2052831 11.8106535,10.3642655 11.9501301,10.4318354 C11.793084,9.19920055 10.9779162,8.39098657 10.9779162,8.20511094 C11.7497103,8.87026887 12.2217869,9.288861 12.3941458,9.46088732 C12.939038,7.14633388 13.7480154,5.42553092 14.4087901,4.1677608 C14.4087901,4.1677608 17.0755903,-0.40315114 17.8733998,0.0287926636 Z" id="Body"></path>
            <path d="M34.2016244,46.3200891 C36.1318092,49.9174372 36.9255616,51.1327407 38.0630572,54.3434845 C38.3178685,54.2402347 38.6325506,54.060287 38.7978037,53.9168262 C38.9967485,51.3263495 40.0948736,49.073139 41.1974895,47.5283642 C37.9650398,46.6642961 36.0029716,46.5070108 34.2016244,46.3200891 Z" id="Left-Paw---top"></path>
            <path d="M38.9150769,57.2039324 C39.0979508,57.9592781 39.1106025,58.3612308 39.3264525,59.0031927 C39.5423024,59.6451546 40.5457141,60.0289943 41.3588659,61.0999339 C42.1720176,62.1708734 42.9312258,63.5219393 43.3282177,63.8406431 C43.7252097,64.1593469 44.6578425,63.9076903 45.4280955,62.966882 C46.1983485,62.0260736 46.7468172,61.0070177 46.0838267,59.0851241 C44.5940549,58.4434153 41.7802832,58.5320912 38.9150769,57.2039324 Z" id="Left-Paw---bottom"></path>
        </g>
        <g id="Rocks" transform="translate(12.804760, 43.166499)" fill="#000000">
            <path d="M12.2529246,8.91127749 C12.0075492,8.32394059 11.4220461,7.52245953 11.1501225,7.24604343 C10.8781988,6.96962733 9.22767573,7.63840322 9.07296312,8.07866046 C8.91825052,8.5189177 9.22968463,9.41370808 9.46209799,9.6603652 C9.69451134,9.90702232 10.2955085,10.8772042 10.6629439,10.9260669 C11.0303792,10.9749295 12.4983,9.49861439 12.2529246,8.91127749 Z" id="Rock-3"></path>
            <path d="M6.7991365,9.05419106 C6.71831039,8.3934007 4.60396923,8.00753146 4.23890199,8.27192335 C3.87383474,8.53631524 2.32797585,9.87732997 2.45072355,10.6503388 C2.57347126,11.4233477 2.796835,11.4774571 3.62833933,11.9710279 C4.45984366,12.4645987 5.23406354,12.8451885 5.60071872,12.5201373 C5.9673739,12.1950862 6.43391047,11.4233477 6.61652348,10.9755488 C6.7991365,10.5277499 6.87996261,9.71498141 6.7991365,9.05419106 Z" id="Rock-2"></path>
            <path d="M2.8157908,0.000506385893 C3.32281981,-0.039986066 5.80572168,2.35859623 5.8654282,3.37455979 C5.92513472,4.39052334 4.54426271,5.4064869 3.97387492,5.73153807 C3.40348713,6.05658925 2.81210989,6.33736724 1.98228146,6.15789977 C1.15245304,5.97843231 0.925984247,5.56845671 0.499463754,4.9801252 C0.0729432612,4.3917937 -0.150157729,4.39610345 0.113594507,3.47587031 C0.377346743,2.55563718 0.538050679,2.64220219 1.14877213,1.66673108 C1.75949358,0.691259977 2.30876178,0.0409988378 2.8157908,0.000506385893 Z" id="Rock-1"></path>
        </g>
        <path d="M47.0129124,30.83171 C47.1004991,30.4718508 47.0859635,30.1950932 46.9693056,30.0014371 C46.7943188,29.710953 45.6477596,29.1981831 45.309043,29.149199 C44.9703264,29.100215 43.2054302,28.7815551 40.1348645,30.7571497 C37.0642987,32.7327444 34.1871236,40.5941223 33.955417,42.1238541 C33.7237103,43.6535858 33.6090638,44.6985722 33.9172517,46.3065229 C34.0605358,47.0540983 35.4131138,49.8545821 36.3892419,52.0777768 C37.5864217,50.4458031 39.1089149,50.2016387 39.9416247,49.5019996 C40.7743345,48.8023604 41.2393155,47.9973453 41.985444,46.7956037 C40.8504857,46.353873 40.4353679,46.2276598 40.1348645,46.0942577 C39.8595244,42.367719 41.2751044,37.7997441 42.1235291,35.6571025 C42.8061379,33.9332182 44.6245749,31.9760438 44.9478937,31.5513185 C45.2712124,31.1265932 45.9791822,30.7032379 46.1218785,30.7380485 C46.32456,30.7874925 46.6215713,30.818713 47.0129124,30.83171 Z" id="Scarf" fill="#C41330"></path>
    </g>
</svg>